<svg width="52" height="18" viewBox="0 0 52 18" fill="none" xmlns="http://www.w3.org/2000/svg">
<path d="M19.8832 8.71986V2.88062H22.0562C22.3422 2.88062 22.6037 2.92662 22.8415 3.01812C23.0787 3.10987 23.2832 3.24012 23.4545 3.40862C23.6257 3.57712 23.7587 3.77887 23.8532 4.01362C23.9475 4.24812 23.9947 4.50861 23.9947 4.79461V4.80287C23.9947 5.08887 23.9475 5.34912 23.8532 5.58387C23.7587 5.81837 23.626 6.02087 23.4545 6.19087C23.283 6.36087 23.0787 6.49237 22.8415 6.58537C22.604 6.67862 22.3422 6.72511 22.0562 6.72511H20.7897V8.72012H19.8832V8.71986ZM21.83 3.64562H20.79V5.96437H21.83C22.2237 5.96437 22.5295 5.86311 22.7465 5.66086C22.9637 5.45836 23.0725 5.17387 23.0725 4.80687V4.79887C23.0725 4.43462 22.9637 4.15136 22.7465 3.94911C22.5292 3.74661 22.2237 3.64562 21.83 3.64562Z" fill="white"/>
<path d="M24.832 8.71983V4.46283H25.706V5.19133H25.7265C25.7965 4.94308 25.9167 4.74633 26.0865 4.60058C26.2565 4.45483 26.4627 4.38208 26.7057 4.38208C26.7677 4.38208 26.8252 4.38608 26.8777 4.39433C26.9305 4.40233 26.9742 4.40908 27.0092 4.41458V5.22783C26.974 5.21433 26.9215 5.20283 26.8512 5.19333C26.7812 5.18383 26.703 5.17908 26.6167 5.17908C26.3362 5.17908 26.1142 5.26683 25.9512 5.44208C25.788 5.61758 25.7065 5.86433 25.7065 6.18258V8.71983H24.832Z" fill="white"/>
<path d="M29.4512 8.80483C29.0357 8.80483 28.6775 8.71533 28.3767 8.53583C28.076 8.35633 27.8452 8.10208 27.6847 7.77308C27.524 7.44408 27.444 7.05533 27.444 6.60758V6.60358C27.444 6.27158 27.4897 5.96958 27.5815 5.69708C27.6732 5.42458 27.8055 5.18983 27.978 4.99308C28.1505 4.79633 28.3572 4.64508 28.5972 4.53983C28.8375 4.43458 29.1072 4.38208 29.4065 4.38208C29.806 4.38208 30.1492 4.47108 30.4365 4.64908C30.7237 4.82708 30.9447 5.07658 31.1 5.39783C31.255 5.71883 31.3327 6.09258 31.3327 6.51858V6.81408H28.318C28.326 7.21608 28.4332 7.52908 28.6395 7.75283C28.846 7.97683 29.1232 8.08883 29.4712 8.08883C29.6437 8.08883 29.7962 8.06183 29.9285 8.00783C30.0605 7.95383 30.1705 7.88233 30.258 7.79333C30.3457 7.70433 30.4072 7.60708 30.4422 7.50183L30.4542 7.46958H31.2837L31.2757 7.51408C31.2405 7.68408 31.1747 7.84608 31.0775 7.99958C30.9802 8.15333 30.854 8.29108 30.699 8.41233C30.544 8.53358 30.3617 8.62958 30.1525 8.69958C29.9442 8.76983 29.71 8.80483 29.4512 8.80483ZM29.4107 5.09833C29.2217 5.09833 29.0507 5.14008 28.8967 5.22358C28.743 5.30733 28.6167 5.43083 28.5182 5.59383C28.4197 5.75683 28.357 5.95733 28.33 6.19458H30.4667C30.4315 5.82508 30.3182 5.54983 30.127 5.36908C29.9352 5.18858 29.6965 5.09833 29.4107 5.09833Z" fill="white"/>
<path d="M32.216 8.71984V4.46284H33.09V5.12259H33.1102C33.2017 4.89859 33.351 4.71934 33.5572 4.58434C33.7635 4.44934 34.0057 4.38184 34.2835 4.38184C34.5777 4.38184 34.828 4.45484 35.0342 4.60034C35.2405 4.74609 35.3855 4.95234 35.4692 5.21959H35.4895C35.6 4.96059 35.7735 4.75634 36.0095 4.60659C36.2452 4.45684 36.5147 4.38209 36.8167 4.38209C37.0972 4.38209 37.3422 4.44084 37.5512 4.55809C37.7602 4.67559 37.922 4.83934 38.0367 5.04984C38.1512 5.26034 38.2087 5.50834 38.2087 5.79459V8.72034H37.3305V6.00459C37.3305 5.72684 37.2597 5.51159 37.118 5.35909C36.9765 5.20684 36.7762 5.13034 36.5172 5.13034C36.3445 5.13034 36.192 5.17009 36.06 5.24984C35.9277 5.32934 35.8247 5.43859 35.7505 5.57759C35.6762 5.71659 35.6392 5.87634 35.6392 6.05709V8.71984H34.7812V5.93984C34.7812 5.69159 34.709 5.49459 34.5647 5.34909C34.4205 5.20359 34.2242 5.13059 33.9762 5.13059C33.8035 5.13059 33.6502 5.17234 33.5167 5.25609C33.3832 5.33984 33.2787 5.45384 33.2032 5.59809C33.1275 5.74234 33.09 5.90634 33.09 6.08959V8.71984H32.216Z" fill="white"/>
<path d="M39.7312 3.80731C39.6367 3.80731 39.551 3.78431 39.4742 3.73856C39.3972 3.69281 39.336 3.63206 39.2902 3.55656C39.2445 3.48106 39.2215 3.39731 39.2215 3.30556C39.2215 3.21131 39.2445 3.12631 39.2902 3.05056C39.336 2.97481 39.3975 2.91431 39.4742 2.86831C39.5512 2.82256 39.6367 2.79956 39.7312 2.79956C39.8285 2.79956 39.9152 2.82256 39.9922 2.86831C40.0692 2.91431 40.1297 2.97481 40.1745 3.05056C40.219 3.12606 40.2412 3.21106 40.2412 3.30556C40.2412 3.39731 40.219 3.48106 40.1745 3.55656C40.1297 3.63206 40.0692 3.69281 39.9922 3.73856C39.9152 3.78431 39.8285 3.80731 39.7312 3.80731ZM39.2942 8.71981V4.46281H40.1682V8.71981H39.2942Z" fill="white"/>
<path d="M42.7264 8.80477C42.4164 8.80477 42.1512 8.74077 41.9312 8.61252C41.7114 8.48427 41.5442 8.30227 41.4294 8.06602C41.3147 7.83002 41.2574 7.54877 41.2574 7.22227V4.46277H42.1314V7.05252C42.1314 7.37352 42.2069 7.62052 42.3579 7.79302C42.5089 7.96552 42.7357 8.05202 43.0379 8.05202C43.2427 8.05202 43.4209 8.00627 43.5722 7.91452C43.7232 7.82277 43.8404 7.69402 43.9242 7.52802C44.0077 7.36202 44.0494 7.16852 44.0494 6.94727V4.46277H44.9277V8.71977H44.0494V8.08027H44.0294C43.9187 8.29352 43.7547 8.46752 43.5377 8.60227C43.3204 8.73727 43.0499 8.80477 42.7264 8.80477Z" fill="white"/>
<path d="M45.9557 8.71984V4.46284H46.8297V5.12259H46.85C46.9415 4.89859 47.0907 4.71934 47.297 4.58434C47.5032 4.44934 47.7455 4.38184 48.0232 4.38184C48.3175 4.38184 48.5677 4.45484 48.774 4.60034C48.9802 4.74609 49.1252 4.95234 49.209 5.21959H49.2292C49.3397 4.96059 49.5132 4.75634 49.7492 4.60659C49.985 4.45684 50.2545 4.38209 50.5565 4.38209C50.837 4.38209 51.082 4.44084 51.291 4.55809C51.5 4.67559 51.6617 4.83934 51.7765 5.04984C51.891 5.26034 51.9485 5.50834 51.9485 5.79459V8.72034H51.0702V6.00459C51.0702 5.72684 50.9995 5.51159 50.8577 5.35909C50.7162 5.20684 50.516 5.13034 50.257 5.13034C50.0842 5.13034 49.9317 5.17009 49.7997 5.24984C49.6675 5.32934 49.5645 5.43859 49.4902 5.57759C49.416 5.71659 49.379 5.87634 49.379 6.05709V8.71984H48.521V5.93984C48.521 5.69159 48.4487 5.49459 48.3045 5.34909C48.1602 5.20359 47.964 5.13059 47.716 5.13059C47.5432 5.13059 47.39 5.17234 47.2565 5.25609C47.123 5.33984 47.0185 5.45384 46.943 5.59809C46.8672 5.74234 46.8297 5.90634 46.8297 6.08959V8.71984H45.9557Z" fill="white"/>
<path d="M19.8832 17.3535V11.5143H22.0562C22.3422 11.5143 22.6037 11.5603 22.8415 11.6518C23.0787 11.7435 23.2832 11.8738 23.4545 12.0423C23.6257 12.2108 23.7587 12.4125 23.8532 12.6473C23.9475 12.8818 23.9947 13.1423 23.9947 13.4283V13.4365C23.9947 13.7225 23.9475 13.9828 23.8532 14.2175C23.7587 14.452 23.626 14.6545 23.4545 14.8245C23.283 14.9945 23.0787 15.126 22.8415 15.219C22.604 15.3123 22.3422 15.3588 22.0562 15.3588H20.7897V17.3538L19.8832 17.3535ZM21.83 12.279H20.79V14.5978H21.83C22.2237 14.5978 22.5295 14.4965 22.7465 14.2943C22.9637 14.0918 23.0725 13.8073 23.0725 13.4403V13.4323C23.0725 13.068 22.9637 12.7848 22.7465 12.5825C22.5292 12.3803 22.2237 12.279 21.83 12.279Z" fill="white"/>
<path d="M25.875 17.4306C25.5917 17.4306 25.3435 17.3766 25.1302 17.2689C24.917 17.1611 24.7512 17.0099 24.6327 16.8156C24.5137 16.6214 24.4545 16.3976 24.4545 16.1439V16.1359C24.4545 15.7661 24.5922 15.4721 24.8672 15.2536C25.1422 15.0351 25.5322 14.9111 26.0367 14.8814L27.1942 14.8126V14.4929C27.1942 14.2581 27.1212 14.0741 26.9757 13.9406C26.83 13.8071 26.6207 13.7404 26.3482 13.7404C26.0947 13.7404 25.8925 13.7944 25.7412 13.9021C25.59 14.0099 25.496 14.1489 25.458 14.3189L25.45 14.3554H24.6245L24.6285 14.3109C24.65 14.0654 24.7322 13.8456 24.8752 13.6514C25.0182 13.4571 25.2165 13.3026 25.4702 13.1879C25.7237 13.0734 26.0245 13.0159 26.3725 13.0159C26.7205 13.0159 27.0212 13.0739 27.2747 13.1899C27.5282 13.3059 27.7247 13.4684 27.8635 13.6774C28.0025 13.8864 28.0717 14.1341 28.0717 14.4199V17.3536H27.1937V16.6819H27.1775C27.0535 16.9111 26.8755 17.0934 26.6432 17.2281C26.412 17.3631 26.1555 17.4306 25.875 17.4306ZM25.337 16.1234C25.337 16.3096 25.4077 16.4571 25.5495 16.5664C25.6912 16.6756 25.8792 16.7304 26.114 16.7304C26.319 16.7304 26.5032 16.6879 26.6665 16.6029C26.8295 16.5179 26.9585 16.4019 27.053 16.2549C27.1472 16.1079 27.1945 15.9426 27.1945 15.7591V15.4274L26.1545 15.4921C25.8927 15.5084 25.691 15.5709 25.5495 15.6801C25.408 15.7896 25.337 15.9346 25.337 16.1151V16.1234Z" fill="white"/>
<path d="M29.084 17.3536V13.0966H29.958V13.8251H29.9782C30.0482 13.5769 30.1685 13.3801 30.3382 13.2344C30.5082 13.0886 30.7145 13.0159 30.9575 13.0159C31.0195 13.0159 31.077 13.0199 31.1295 13.0281C31.1822 13.0361 31.226 13.0429 31.261 13.0484V13.8619C31.2257 13.8484 31.1732 13.8369 31.103 13.8274C31.033 13.8179 30.9547 13.8131 30.8685 13.8131C30.588 13.8131 30.366 13.9009 30.203 14.0761C30.0397 14.2516 29.9582 14.4984 29.9582 14.8166V17.3539L29.084 17.3536Z" fill="white"/>
<path d="M33.7937 17.4385C33.3727 17.4385 33.0597 17.3435 32.8547 17.1533C32.6497 16.963 32.5475 16.6563 32.5475 16.2325V13.7925H31.9365V13.0965H32.5475V11.9878H33.4417V13.0965H34.2387V13.7925H33.4417V16.18C33.4417 16.396 33.4895 16.5438 33.5852 16.623C33.681 16.7028 33.8205 16.7425 34.0042 16.7425C34.05 16.7425 34.0925 16.7405 34.1317 16.7365C34.1707 16.7323 34.2065 16.729 34.239 16.7263V17.402C34.1877 17.41 34.123 17.418 34.0447 17.4263C33.9665 17.4345 33.8827 17.4385 33.7937 17.4385Z" fill="white"/>
<path d="M35.1665 17.3536V13.0966H36.0405V13.7401H36.0607C36.1712 13.5244 36.336 13.3496 36.5545 13.2161C36.773 13.0826 37.0427 13.0159 37.3637 13.0159C37.6765 13.0159 37.9422 13.0799 38.1607 13.2081C38.3792 13.3364 38.5465 13.5184 38.6625 13.7544C38.7785 13.9904 38.8365 14.2716 38.8365 14.5981V17.3539H37.9582V14.7639C37.9582 14.4429 37.8835 14.1961 37.7337 14.0234C37.584 13.8506 37.3567 13.7644 37.0517 13.7644C36.847 13.7644 36.6687 13.8109 36.5177 13.9041C36.3667 13.9971 36.2492 14.1266 36.1657 14.2926C36.082 14.4586 36.0402 14.6521 36.0402 14.8734V17.3539L35.1665 17.3536Z" fill="white"/>
<path d="M41.6612 17.4386C41.2457 17.4386 40.8875 17.3491 40.5867 17.1696C40.286 16.9901 40.0552 16.7359 39.8947 16.4069C39.734 16.0779 39.654 15.6891 39.654 15.2414V15.2374C39.654 14.9054 39.6997 14.6034 39.7915 14.3309C39.8832 14.0584 40.0155 13.8236 40.188 13.6269C40.3605 13.4301 40.5672 13.2789 40.8072 13.1736C41.0475 13.0684 41.3172 13.0159 41.6165 13.0159C42.016 13.0159 42.3592 13.1049 42.6465 13.2829C42.9337 13.4609 43.1547 13.7104 43.31 14.0316C43.465 14.3526 43.5427 14.7264 43.5427 15.1524V15.4479H40.528C40.536 15.8499 40.6432 16.1629 40.8495 16.3866C41.056 16.6106 41.3332 16.7226 41.6812 16.7226C41.8537 16.7226 42.0062 16.6956 42.1385 16.6416C42.2705 16.5876 42.3805 16.5161 42.468 16.4271C42.5557 16.3381 42.6172 16.2409 42.6522 16.1356L42.6642 16.1034H43.4937L43.4857 16.1479C43.4505 16.3179 43.3847 16.4799 43.2875 16.6334C43.1902 16.7871 43.064 16.9249 42.909 17.0461C42.754 17.1674 42.5717 17.2634 42.3625 17.3334C42.154 17.4036 41.92 17.4386 41.6612 17.4386ZM41.6207 13.7319C41.4317 13.7319 41.2607 13.7736 41.1067 13.8571C40.953 13.9409 40.8267 14.0644 40.7282 14.2274C40.6297 14.3904 40.567 14.5909 40.54 14.8281H42.6767C42.6415 14.4586 42.5282 14.1834 42.337 14.0026C42.1452 13.8224 41.9065 13.7319 41.6207 13.7319Z" fill="white"/>
<path d="M44.4257 17.3536V13.0966H45.2997V13.8251H45.32C45.39 13.5769 45.5102 13.3801 45.68 13.2344C45.85 13.0886 46.0562 13.0159 46.2992 13.0159C46.3612 13.0159 46.4187 13.0199 46.4712 13.0281C46.524 13.0361 46.5677 13.0429 46.6027 13.0484V13.8619C46.5675 13.8484 46.515 13.8369 46.4447 13.8274C46.3747 13.8179 46.2965 13.8131 46.2102 13.8131C45.9297 13.8131 45.7077 13.9009 45.5447 14.0761C45.3815 14.2516 45.3 14.4984 45.3 14.8166V17.3539L44.4257 17.3536Z" fill="white"/>
<path d="M10.805 4.31549C9.33447 4.20674 8.08697 5.13674 7.39097 5.13674C6.68472 5.13674 5.59597 4.33874 4.44172 4.36074C2.92572 4.38299 1.52872 5.24273 0.747221 6.59998C-0.827279 9.33273 0.345221 13.3825 1.87897 15.6C2.62922 16.6835 3.52397 17.9047 4.69897 17.8602C5.83022 17.8157 6.25822 17.1285 7.62547 17.1285C8.99197 17.1285 9.37747 17.8602 10.5737 17.8382C11.7912 17.8157 12.5627 16.7322 13.3075 15.6425C14.1692 14.3847 14.5232 13.167 14.5442 13.1025C14.5172 13.0922 12.171 12.192 12.1475 9.48873C12.1262 7.22848 13.9922 6.14224 14.0772 6.08999C13.0175 4.53024 11.3815 4.35824 10.805 4.31549Z" fill="white"/>
<path d="M9.89773 2.8515C10.5222 2.09675 10.9425 1.0455 10.8267 0C9.92798 0.03575 8.84073 0.59875 8.19598 1.353C7.61873 2.02125 7.11148 3.0915 7.24923 4.1155C8.25123 4.19325 9.27373 3.60675 9.89773 2.8515Z" fill="white"/>
</svg>
