<svg width="24" height="24" viewBox="0 0 24 24" fill="none" xmlns="http://www.w3.org/2000/svg">
<mask id="mask0_3326_663" style="mask-type:luminance" maskUnits="userSpaceOnUse" x="0" y="0" width="24" height="24">
<path d="M24 0H0V24H24V0Z" fill="white"/>
</mask>
<g mask="url(#mask0_3326_663)">
<path d="M23.4 11.9L21.6 9.80002L19.3 4.80002H15.6V3.90002H2V5.80002H13.7V11.3H20.4L21.5 12.6V16H19.9C19.5 14.9 18.4 14.1 17.1 14.1C15.8 14.1 14.7 14.9 14.3 16H10.1C9.7 14.9 8.6 14.1 7.3 14.1C6 14.1 5 14.9 4.5 16H2V18H4.5C4.9 19.2 6 20.1 7.4 20.1C8.8 20.1 9.9 19.2 10.3 18H14.3C14.7 19.2 15.8 20.1 17.2 20.1C18.6 20.1 19.7 19.2 20.1 18H23.6V11.9H23.4ZM7.3 18.2C6.7 18.2 6.2 17.7 6.2 17.1C6.2 16.5 6.7 16 7.3 16C7.9 16 8.4 16.5 8.4 17.1C8.4 17.7 7.9 18.2 7.3 18.2ZM17.1 18.2C16.5 18.2 16 17.7 16 17.1C16 16.5 16.5 16 17.1 16C17.7 16 18.2 16.5 18.2 17.1C18.2 17.7 17.7 18.2 17.1 18.2ZM15.6 6.70002H18L19.2 9.30002H15.5V6.70002H15.6Z" fill="black"/>
<path d="M8.00001 10.3H0.600006V12.2H8.00001V10.3Z" fill="black"/>
<path d="M9.10001 7.5H1.70001V9.4H9.10001V7.5Z" fill="black"/>
</g>
</svg>
