<svg width="24" height="24" viewBox="0 0 24 24" fill="none" xmlns="http://www.w3.org/2000/svg">
<mask id="mask0_3300_1520" style="mask-type:luminance" maskUnits="userSpaceOnUse" x="0" y="0" width="24" height="24">
<path d="M24 0H0V24H24V0Z" fill="white"/>
</mask>
<g mask="url(#mask0_3300_1520)">
<path d="M10.2 16.6C6.69999 16.6 3.79999 13.7 3.79999 10.2C3.79999 6.70005 6.69999 3.80005 10.2 3.80005C13.7 3.80005 16.6 6.70005 16.6 10.2C16.6 13.7 13.7 16.6 10.2 16.6ZM10.2 5.70005C7.69999 5.70005 5.69999 7.70005 5.69999 10.2C5.69999 12.7 7.69999 14.7 10.2 14.7C12.7 14.7 14.7 12.7 14.7 10.2C14.7 7.70005 12.7 5.70005 10.2 5.70005Z" fill="black"/>
<path d="M16.3257 15.0614L14.9822 16.4049L18.8713 20.294L20.2148 18.9505L16.3257 15.0614Z" fill="black"/>
</g>
</svg>
