<svg width="32" height="32" viewBox="0 0 32 32" fill="none" xmlns="http://www.w3.org/2000/svg">
<rect width="32" height="32" fill="black"/>
<path d="M14.4984 14.3003V13.6774C14.285 13.6489 14.068 13.6311 13.844 13.6311C11.173 13.6276 9 15.8024 9 18.4792C9 20.1201 9.818 21.5724 11.0699 22.4516C10.2626 21.5867 9.76821 20.4227 9.76821 19.1484C9.76821 16.5108 11.8808 14.3608 14.4984 14.3003Z" fill="white"/>
<path d="M14.6157 21.3624C15.8072 21.3624 16.7817 20.412 16.8244 19.2303L16.8279 8.66919H18.7555C18.7164 8.45206 18.6951 8.22781 18.6951 8H16.0633L16.0597 18.5611C16.017 19.7428 15.0425 20.6932 13.8511 20.6932C13.4812 20.6932 13.1327 20.6007 12.8233 20.4369C13.2216 20.9958 13.876 21.3624 14.6157 21.3624Z" fill="white"/>
<path d="M22.3584 12.2536V11.6663C21.6222 11.6663 20.9393 11.4492 20.3632 11.0718C20.8753 11.6592 21.5688 12.0863 22.3584 12.2536Z" fill="white"/>
<path d="M18.695 18.4792V13.1221C19.7264 13.8625 20.9925 14.3003 22.3582 14.3003V12.2536C21.5687 12.0863 20.8751 11.6592 20.363 11.0718C19.5379 10.5344 18.944 9.67297 18.7554 8.66919H16.8278L16.8243 19.2302C16.7816 20.412 15.8071 21.3624 14.6157 21.3624C13.8759 21.3624 13.2251 20.9958 12.8196 20.4405C12.1155 20.0667 11.6318 19.3299 11.6318 18.4792C11.6318 17.2583 12.624 16.2652 13.8439 16.2652C14.0715 16.2652 14.292 16.3043 14.4983 16.3684V14.3039C11.8807 14.3608 9.76816 16.5108 9.76816 19.1484C9.76816 20.4227 10.2625 21.5831 11.0698 22.4516C11.8558 23.0033 12.8161 23.3308 13.8475 23.3308C16.5184 23.3308 18.695 21.1524 18.695 18.4792Z" fill="white"/>
</svg>
